<?xml version="1.0" encoding="UTF-8"?>
<svg xmlns="http://www.w3.org/2000/svg" version="1.1" viewBox="0 0 526.04 411.46">
  <defs>
    <style>
      .cls-1 {
        fill: #fff;
      }
    </style>
  </defs>
  <!-- Generator: Adobe Illustrator 28.6.0, SVG Export Plug-In . SVG Version: 1.2.0 Build 709)  -->
  <g>
    <g id="Camada_1">
      <g>
        <path class="cls-1" d="M343.2,156.48c13.31,20.92,49.83,20.54,68.08,12.55,18.26-7.99,37.27,7.99,37.27,7.99,0,0-10.51-27.51-39.37-19.97-28.85,7.54-61.05-30.81-7.99-20.54,53.06,10.27,111.82,65.04,111.82,65.04-86.72-115.14-162.08-115.46-205.93-99.98-31.16,11-47.17,46.78-33.16,76.7,23.76,50.74,94.51,43.3,123.14,37.96-15.64.68-24.48-9.67-2.15-14.87,27.77-6.46,52.87,12.17,52.87,12.17,0,0-9.89-31.95-76.07-26.24-66.18,5.71-77.97-31.57-72.26-41.95,5.71-10.38,30.43-9.77,43.74,11.14Z"/>
        <path class="cls-1" d="M211.43,185.59s.03.02.04.04l108.14-132.98s18.64-1.9,37.27,17.49c18.64,19.4,36.89,28.53,38.04,19.4s-7.99-6.46-17.12-10.65c-9.13-4.19-28.53-26.62-41.08-31.57l7.23-8.37,95.47,44.12,10.27-20.92S336.73,8.52,316.19,10.05l-44.67,61.46-4-4.6c-10.35-11.9-25.54-18.45-41.3-17.79l-16.34.68s-4.18,43.36,0,75.31l19.33,4.61-32.94,45.33s.01,0,.02.01c-18.08-10.67-39.17-16.79-61.68-16.79-67.16,0-121.6,54.44-121.6,121.59,0,67.16,54.44,121.59,121.6,121.59s121.59-54.44,121.59-121.59c0-38.02-17.45-71.96-44.78-94.26ZM204.16,180.1c-.07-.05-.13-.09-.2-.14.07.05.13.09.2.14ZM206.18,181.54c-.11-.08-.22-.16-.32-.24.11.08.22.16.32.24ZM134.62,365.81c-47.48,0-85.96-38.49-85.96-85.96s38.48-85.96,85.96-85.96c14.64,0,28.42,3.66,40.48,10.11l-14.22,19.64c-1.81-.62-3.4-1-4.64-1.25-3.39-.77-9.31-1.67-16.44-.26-10.25,2.03-19.09,7.94-24.91,16.62l-10.85,16.21c-8.26.65-14.92,2.49-20.3,5.62-6.29,3.66-10.64,9.08-12.95,16.1-.47,1.44.07,3.01,1.32,3.85l29.35,19.64c-2.86,7.08-.48,15.44,6.11,19.85,6.59,4.41,15.23,3.42,20.68-1.92l29.35,19.64c1.26.84,2.92.75,4.07-.24,5.6-4.81,8.95-10.9,9.94-18.11.85-6.17.02-13.03-2.54-20.91l10.85-16.21c4.75-7.1,7.01-15.35,6.55-23.86-.4-7.38-2.93-14.61-7.2-20.6-1-1.51-2.48-3.48-4.52-5.52l14.68-18.66c19.03,15.77,31.16,39.58,31.16,66.23,0,47.47-38.49,85.96-85.96,85.96Z"/>
      </g>
    </g>
  </g>
</svg>