<?xml version="1.0" encoding="UTF-8"?>
<svg xmlns="http://www.w3.org/2000/svg" version="1.1" viewBox="0 0 772.92 450">
  <defs>
    <style>
      .cls-1 {
        fill: #fff;
      }
    </style>
  </defs>
  <!-- Generator: Adobe Illustrator 28.6.0, SVG Export Plug-In . SVG Version: 1.2.0 Build 709)  -->
  <g>
    <g id="Camada_1">
      <g>
        <g>
          <path class="cls-1" d="M318.42,142.63c12.37,19.43,46.28,19.08,63.23,11.66,16.96-7.42,34.62,7.42,34.62,7.42,0,0-9.76-25.55-36.56-18.55-26.8,7-56.7-28.61-7.42-19.08,49.28,9.54,103.86,60.41,103.86,60.41-80.54-106.94-150.54-107.23-191.26-92.86-28.94,10.21-43.81,43.44-30.8,71.24,22.07,47.13,87.77,40.22,114.37,35.25-14.53.63-22.73-8.98-2-13.81,25.79-6,49.1,11.31,49.1,11.31,0,0-9.19-29.67-70.65-24.37-61.47,5.3-72.42-29.32-67.12-38.96,5.3-9.64,28.26-9.08,40.62,10.35Z"/>
          <path class="cls-1" d="M196.04,169.67s.03.02.04.03l100.44-123.51s17.31-1.77,34.62,16.25c17.31,18.02,34.27,26.49,35.33,18.02s-7.42-6-15.9-9.89c-8.48-3.89-26.49-24.73-38.15-29.32l6.71-7.77,88.67,40.98,9.54-19.43S312.42,5.21,293.34,6.63l-41.49,57.08-3.71-4.27c-9.61-11.05-23.72-17.13-38.36-16.53l-15.18.63s-3.89,40.27,0,69.94l17.96,4.28-30.6,42.1s.01,0,.02.01c-16.8-9.91-36.38-15.6-57.29-15.6-62.37,0-112.93,50.56-112.93,112.93,0,62.37,50.56,112.93,112.93,112.93s112.93-50.56,112.93-112.93c0-35.31-16.21-66.83-41.59-87.54ZM189.29,164.57c-.06-.04-.12-.08-.18-.13.06.04.12.08.18.13ZM191.16,165.9c-.1-.07-.2-.15-.3-.22.1.07.2.15.3.22ZM124.7,337.05c-44.1,0-79.84-35.75-79.84-79.84s35.74-79.84,79.84-79.84c13.59,0,26.39,3.4,37.6,9.39l-13.21,18.24c-1.68-.57-3.16-.93-4.31-1.16-3.15-.72-8.65-1.55-15.27-.24-9.52,1.89-17.73,7.37-23.13,15.44l-10.08,15.05c-7.68.6-13.86,2.32-18.86,5.22-5.84,3.4-9.88,8.43-12.02,14.95-.44,1.34.06,2.79,1.23,3.58l27.26,18.24c-2.66,6.57-.44,14.34,5.67,18.44,6.12,4.09,14.15,3.18,19.21-1.78l27.26,18.24c1.17.78,2.71.69,3.78-.22,5.21-4.47,8.31-10.12,9.23-16.82.79-5.73.02-12.1-2.36-19.42l10.08-15.05c4.41-6.59,6.51-14.25,6.08-22.16-.37-6.86-2.72-13.57-6.68-19.13-.93-1.4-2.3-3.23-4.2-5.13l13.63-17.34c17.68,14.65,28.94,36.76,28.94,61.51,0,44.09-35.75,79.84-79.84,79.84Z"/>
        </g>
        <g>
          <path class="cls-1" d="M326.95,263.43h-27.32v20.75h16.94v13.4c0,1.93-.46,3.7-1.38,5.32-.92,1.62-2.19,2.91-3.81,3.88-1.62.96-3.39,1.44-5.32,1.44h-21.8c-1.93,0-3.68-.46-5.25-1.38-1.58-.92-2.85-2.19-3.81-3.81-.96-1.62-1.44-3.44-1.44-5.45v-42.29c0-2.01.48-3.83,1.44-5.45.96-1.62,2.23-2.89,3.81-3.81,1.58-.92,3.33-1.38,5.25-1.38h47.94v-20.75h-47.94c-5.69,0-10.92,1.42-15.69,4.27-4.77,2.85-8.54,6.65-11.3,11.43-2.76,4.77-4.14,10-4.14,15.7v42.29c0,5.69,1.38,10.92,4.14,15.69,2.76,4.77,6.52,8.58,11.3,11.43,4.77,2.85,10,4.27,15.69,4.27h21.8c5.6,0,10.81-1.42,15.63-4.27,4.81-2.84,8.62-6.68,11.43-11.49,2.8-4.81,4.2-10.03,4.2-15.63v-23.77c0-2.98-.98-5.45-2.96-7.42-1.97-1.97-4.44-2.96-7.42-2.96Z"/>
          <path class="cls-1" d="M365.3,253.45c-3.77,2.19-6.74,5.14-8.93,8.87-2.19,3.72-3.28,7.81-3.28,12.28v54.37h20.36v-54.24c0-.79.17-1.51.53-2.17.35-.66.85-1.16,1.51-1.51.66-.35,1.33-.53,2.04-.53h26.66v-20.36h-26.66c-4.38,0-8.45,1.1-12.21,3.28Z"/>
          <path class="cls-1" d="M480.61,328.97v-20.36h-44.65c-.7,0-1.38-.17-2.04-.53-.66-.35-1.16-.85-1.51-1.51-.35-.66-.53-1.38-.53-2.17v-29.68c0-.79.17-1.51.53-2.17.35-.66.85-1.16,1.51-1.51.66-.35,1.33-.53,2.04-.53h25.09c.7,0,1.38.2,2.04.59s1.16.94,1.51,1.64c.35.7.53,1.44.53,2.23,0,1.14-.39,2.17-1.18,3.09s-1.75,1.38-2.89,1.38h-21.15v20.36h20.88c4.55,0,8.71-1.12,12.48-3.35,3.76-2.23,6.74-5.23,8.93-9,2.19-3.76,3.28-7.92,3.28-12.48s-1.1-8.6-3.28-12.41c-2.19-3.81-5.17-6.83-8.93-9.06-3.77-2.23-7.93-3.35-12.48-3.35h-24.56c-4.46,0-8.6,1.12-12.41,3.35-3.81,2.23-6.81,5.25-9,9.06-2.19,3.81-3.28,7.95-3.28,12.41v29.16c0,4.47,1.09,8.6,3.28,12.41,2.19,3.81,5.19,6.83,9,9.06,3.81,2.23,7.95,3.35,12.41,3.35h44.39Z"/>
          <path class="cls-1" d="M536.3,328.97h20.36v-58.45h13.4c.79,0,1.51.2,2.17.59.66.39,1.18.9,1.58,1.51.39.61.59,1.31.59,2.1v54.24h20.36v-53.98c0-4.46-1.14-8.6-3.41-12.41-2.28-3.81-5.32-6.83-9.13-9.06s-7.99-3.35-12.54-3.35h-61.2c-2.98,0-5.47.99-7.49,2.96-2.02,1.97-3.02,4.4-3.02,7.29v68.56h20.36v-58.45h17.99v58.45Z"/>
          <rect class="cls-1" x="651.22" y="223.9" width="20.36" height="20.36"/>
          <path class="cls-1" d="M757.8,262.58c-2.23-3.81-5.23-6.83-9-9.06-3.77-2.23-7.88-3.35-12.35-3.35h-33.62c-2.89,0-5.32.99-7.29,2.96s-2.96,4.4-2.96,7.29v68.56h20.49v-58.18h23.38c.79,0,1.51.18,2.17.53.66.35,1.16.85,1.51,1.51.35.66.53,1.38.53,2.17v53.98h20.49v-53.98c0-4.46-1.12-8.6-3.35-12.41Z"/>
          <path class="cls-1" d="M506.18,386.92c.8-1.04,1.55-2.14,2.24-3.3,2.84-4.81,4.27-10.03,4.27-15.63s-1.4-10.92-4.2-15.7c-2.8-4.77-6.63-8.58-11.49-11.43-4.86-2.84-10.14-4.27-15.83-4.27h-38.09c-2.8,0-5.21.98-7.22,2.96-2.02,1.97-3.02,4.31-3.02,7.03v95.09h20.36v-84.71h27.98c2.01,0,3.87.48,5.58,1.44,1.71.96,3.06,2.3,4.07,4.01,1,1.71,1.51,3.57,1.51,5.58s-.51,3.85-1.51,5.52c-1.01,1.66-2.36,3-4.07,4.01-1.71,1.01-3.57,1.51-5.58,1.51h-19.96v20.23h25.96c1.37.2,2.66.66,3.85,1.38,1.66,1.01,2.98,2.36,3.94,4.07.96,1.71,1.44,3.57,1.44,5.58s-.48,3.87-1.44,5.58c-.96,1.71-2.3,3.04-4.01,4.01-1.71.96-3.57,1.44-5.58,1.44h-24.17v20.36h24.17c5.69,0,10.94-1.42,15.76-4.27,4.81-2.84,8.62-6.65,11.43-11.43,2.8-4.77,4.2-10,4.2-15.69s-1.4-10.9-4.2-15.63c-1.74-2.94-3.87-5.52-6.37-7.73Z"/>
          <path class="cls-1" d="M591.1,366.21c-3.77-2.23-7.93-3.35-12.48-3.35h-24.56c-4.46,0-8.6,1.12-12.41,3.35-3.81,2.23-6.81,5.25-9,9.06-2.19,3.81-3.28,7.95-3.28,12.41v29.16c0,4.47,1.09,8.6,3.28,12.41,2.19,3.81,5.19,6.83,9,9.06,3.81,2.23,7.95,3.35,12.41,3.35h44.39v-20.36h-44.65c-.7,0-1.38-.17-2.04-.53-.66-.35-1.16-.85-1.51-1.51-.35-.66-.53-1.38-.53-2.17v-29.68c0-.79.17-1.51.53-2.17.35-.66.85-1.16,1.51-1.51.66-.35,1.33-.53,2.04-.53h25.09c.7,0,1.38.2,2.04.59s1.16.94,1.51,1.64c.35.7.53,1.44.53,2.23,0,1.14-.39,2.17-1.18,3.09s-1.75,1.38-2.89,1.38h-21.15v20.36h20.88c4.55,0,8.71-1.12,12.48-3.35,3.76-2.23,6.74-5.23,8.93-9,2.19-3.76,3.28-7.92,3.28-12.48s-1.1-8.6-3.28-12.41c-2.19-3.81-5.17-6.83-8.93-9.06Z"/>
          <path class="cls-1" d="M635.75,420.25c-.61-.35-1.1-.85-1.45-1.51-.35-.66-.53-1.38-.53-2.17v-192.68h-20.62v192.68c0,4.55,1.05,8.73,3.15,12.54,2.1,3.81,4.95,6.85,8.54,9.13,3.59,2.28,7.53,3.41,11.82,3.41h8.01v-20.88h-6.96c-.7,0-1.36-.18-1.97-.53Z"/>
          <path class="cls-1" d="M673.84,420.25c-.61-.35-1.1-.85-1.45-1.51-.35-.66-.53-1.38-.53-2.17l-.29-88.53v-77.89h-20.36v78.8h.03v87.61c0,4.55,1.05,8.73,3.15,12.54,2.1,3.81,4.95,6.85,8.54,9.13,3.59,2.28,7.53,3.41,11.82,3.41h8.01v-20.88h-6.96c-.7,0-1.36-.18-1.97-.53Z"/>
        </g>
      </g>
    </g>
  </g>
</svg>