<?xml version="1.0" encoding="UTF-8"?>
<svg xmlns="http://www.w3.org/2000/svg" xmlns:xlink="http://www.w3.org/1999/xlink" version="1.1" viewBox="0 0 500 500">
  <defs>
    <style>
      .cls-1 {
        fill: #fff;
      }

      .cls-1, .cls-2, .cls-3, .cls-4, .cls-5, .cls-6, .cls-7, .cls-8, .cls-9, .cls-10, .cls-11, .cls-12, .cls-13, .cls-14, .cls-15, .cls-16, .cls-17, .cls-18, .cls-19, .cls-20 {
        fill-rule: evenodd;
      }

      .cls-21 {
        fill: #960808;
      }

      .cls-2 {
        fill: url(#Gradiente_sem_nome_17);
      }

      .cls-3 {
        fill: url(#Gradiente_sem_nome_22);
      }

      .cls-4 {
        fill: url(#Gradiente_sem_nome_18);
      }

      .cls-5 {
        fill: url(#Gradiente_sem_nome_19);
      }

      .cls-6 {
        fill: url(#Gradiente_sem_nome_23);
      }

      .cls-7 {
        fill: url(#Gradiente_sem_nome_20);
      }

      .cls-8 {
        fill: url(#Gradiente_sem_nome_27);
      }

      .cls-9 {
        fill: url(#Gradiente_sem_nome_21);
      }

      .cls-10 {
        fill: url(#Gradiente_sem_nome_25);
      }

      .cls-11 {
        fill: url(#Gradiente_sem_nome_26);
      }

      .cls-12 {
        fill: url(#Gradiente_sem_nome_28);
      }

      .cls-13 {
        fill: url(#Gradiente_sem_nome_29);
      }

      .cls-14 {
        fill: url(#Gradiente_sem_nome_24);
      }

      .cls-15 {
        fill: url(#Gradiente_sem_nome_31);
      }

      .cls-16 {
        fill: url(#Gradiente_sem_nome_30);
      }

      .cls-17 {
        fill: url(#GradientFill_806);
      }

      .cls-18 {
        fill: url(#GradientFill_805);
      }

      .cls-19 {
        fill: url(#radial-gradient);
        opacity: .46;
      }

      .cls-20 {
        fill: #78f2af;
      }
    </style>
    <linearGradient id="Gradiente_sem_nome_31" data-name="Gradiente sem nome 31" x1="249.95" y1="64.11" x2="249.95" y2="442.79" gradientUnits="userSpaceOnUse">
      <stop offset="0" stop-color="#73f0c8"/>
      <stop offset=".65" stop-color="#73f0c8"/>
      <stop offset="1" stop-color="#73f0c8"/>
    </linearGradient>
    <linearGradient id="Gradiente_sem_nome_30" data-name="Gradiente sem nome 30" x1="249.95" y1="64.57" x2="249.95" y2="442.56" gradientUnits="userSpaceOnUse">
      <stop offset="0" stop-color="#73f0c8"/>
      <stop offset=".65" stop-color="#73f0c8"/>
      <stop offset="1" stop-color="#73f0c8"/>
    </linearGradient>
    <linearGradient id="Gradiente_sem_nome_29" data-name="Gradiente sem nome 29" x1="249.95" y1="65.02" x2="249.95" y2="442.33" gradientUnits="userSpaceOnUse">
      <stop offset="0" stop-color="#73f0c8"/>
      <stop offset=".65" stop-color="#73f0c8"/>
      <stop offset="1" stop-color="#73f0c8"/>
    </linearGradient>
    <linearGradient id="Gradiente_sem_nome_28" data-name="Gradiente sem nome 28" x1="249.95" y1="65.47" x2="249.95" y2="442.1" gradientUnits="userSpaceOnUse">
      <stop offset="0" stop-color="#eb6865"/>
      <stop offset=".65" stop-color="#eb6865"/>
      <stop offset="1" stop-color="#d66461"/>
    </linearGradient>
    <linearGradient id="Gradiente_sem_nome_27" data-name="Gradiente sem nome 27" x1="249.95" y1="65.92" x2="249.95" y2="441.88" gradientUnits="userSpaceOnUse">
      <stop offset="0" stop-color="#ea6260"/>
      <stop offset=".65" stop-color="#ea6260"/>
      <stop offset="1" stop-color="#d05e5b"/>
    </linearGradient>
    <linearGradient id="Gradiente_sem_nome_26" data-name="Gradiente sem nome 26" x1="249.95" y1="66.38" x2="249.95" y2="441.65" gradientUnits="userSpaceOnUse">
      <stop offset="0" stop-color="#e85d5b"/>
      <stop offset=".65" stop-color="#e85d5b"/>
      <stop offset="1" stop-color="#c95856"/>
    </linearGradient>
    <linearGradient id="Gradiente_sem_nome_25" data-name="Gradiente sem nome 25" x1="249.95" y1="66.83" x2="249.95" y2="441.42" gradientUnits="userSpaceOnUse">
      <stop offset="0" stop-color="#e65756"/>
      <stop offset=".65" stop-color="#e65756"/>
      <stop offset="1" stop-color="#c25250"/>
    </linearGradient>
    <linearGradient id="Gradiente_sem_nome_24" data-name="Gradiente sem nome 24" x1="249.95" y1="67.28" x2="249.95" y2="441.19" gradientUnits="userSpaceOnUse">
      <stop offset="0" stop-color="#e45251"/>
      <stop offset=".65" stop-color="#e45251"/>
      <stop offset="1" stop-color="#bb4c4a"/>
    </linearGradient>
    <linearGradient id="Gradiente_sem_nome_23" data-name="Gradiente sem nome 23" x1="249.95" y1="67.73" x2="249.95" y2="440.96" gradientUnits="userSpaceOnUse">
      <stop offset="0" stop-color="#e34d4c"/>
      <stop offset=".65" stop-color="#e34d4c"/>
      <stop offset="1" stop-color="#b44544"/>
    </linearGradient>
    <linearGradient id="Gradiente_sem_nome_22" data-name="Gradiente sem nome 22" x1="249.95" y1="68.19" x2="249.95" y2="440.73" gradientUnits="userSpaceOnUse">
      <stop offset="0" stop-color="#e14747"/>
      <stop offset=".65" stop-color="#e14747"/>
      <stop offset="1" stop-color="#ad3f3f"/>
    </linearGradient>
    <linearGradient id="Gradiente_sem_nome_21" data-name="Gradiente sem nome 21" x1="249.95" y1="68.64" x2="249.95" y2="440.5" gradientUnits="userSpaceOnUse">
      <stop offset="0" stop-color="#df4242"/>
      <stop offset=".65" stop-color="#df4242"/>
      <stop offset="1" stop-color="#a63939"/>
    </linearGradient>
    <linearGradient id="Gradiente_sem_nome_20" data-name="Gradiente sem nome 20" x1="249.95" y1="69.09" x2="249.95" y2="440.28" gradientUnits="userSpaceOnUse">
      <stop offset="0" stop-color="#de3d3e"/>
      <stop offset=".65" stop-color="#de3d3e"/>
      <stop offset="1" stop-color="#a03333"/>
    </linearGradient>
    <linearGradient id="Gradiente_sem_nome_19" data-name="Gradiente sem nome 19" x1="249.95" y1="69.54" x2="249.95" y2="440.05" gradientUnits="userSpaceOnUse">
      <stop offset="0" stop-color="#dc3739"/>
      <stop offset=".65" stop-color="#dc3739"/>
      <stop offset="1" stop-color="#992d2d"/>
    </linearGradient>
    <linearGradient id="Gradiente_sem_nome_18" data-name="Gradiente sem nome 18" x1="249.95" y1="70" x2="249.95" y2="439.82" gradientUnits="userSpaceOnUse">
      <stop offset="0" stop-color="#da3234"/>
      <stop offset=".65" stop-color="#da3234"/>
      <stop offset="1" stop-color="#922628"/>
    </linearGradient>
    <linearGradient id="Gradiente_sem_nome_17" data-name="Gradiente sem nome 17" x1="249.95" y1="70.45" x2="249.95" y2="439.59" gradientUnits="userSpaceOnUse">
      <stop offset="0" stop-color="#d92c2f"/>
      <stop offset=".65" stop-color="#d92c2f"/>
      <stop offset="1" stop-color="#8b2022"/>
    </linearGradient>
    <linearGradient id="GradientFill_805" data-name="GradientFill 805" x1="249.95" y1="70.9" x2="249.95" y2="439.36" gradientUnits="userSpaceOnUse">
      <stop offset="0" stop-color="#d7272a"/>
      <stop offset=".65" stop-color="#d7272a"/>
      <stop offset="1" stop-color="#841a1c"/>
    </linearGradient>
    <linearGradient id="GradientFill_806" data-name="GradientFill 806" x1="249.95" y1="323.39" x2="249.95" y2="709.62" gradientUnits="userSpaceOnUse">
      <stop offset="0" stop-color="#c62629"/>
      <stop offset="1" stop-color="#ef4250"/>
    </linearGradient>
    <radialGradient id="radial-gradient" cx="-136.72" cy="-191.27" fx="-136.72" fy="-191.27" r="229.6" gradientTransform="translate(368.95 380.96) scale(.87)" gradientUnits="userSpaceOnUse">
      <stop offset="0" stop-color="#181314"/>
      <stop offset=".52" stop-color="#cf252a"/>
      <stop offset=".68" stop-color="#f06463"/>
      <stop offset=".77" stop-color="#fac5c3"/>
      <stop offset="1" stop-color="#aedff0"/>
    </radialGradient>
  </defs>
  <!-- Generator: Adobe Illustrator 28.6.0, SVG Export Plug-In . SVG Version: 1.2.0 Build 709)  -->
  <g>
    <g id="Camada_1">
      <g>
        <path class="cls-20" d="M245.35,440.85c-35.46-42.82-72.75-84.97-106.36-129.16-22.16-29.15-39.04-60.09-39.04-101.1,0-195.89,300-195.89,300,0,0,41.01-16.87,71.95-39.04,101.1-33.61,44.19-70.89,86.35-106.36,129.16-1.18,1.42-2.76,2.17-4.61,2.17s-3.42-.75-4.6-2.17Z"/>
        <path class="cls-15" d="M245.35,440.62c-35.31-42.73-72.43-84.81-105.9-128.91-22.07-29.1-38.88-59.98-38.88-100.93,0-195.55,298.76-195.55,298.76,0,0,40.94-16.8,71.83-38.88,100.93-33.46,44.1-70.59,86.18-105.9,128.91-1.18,1.43-2.76,2.17-4.61,2.17s-3.42-.75-4.6-2.17Z"/>
        <path class="cls-16" d="M245.35,440.38c-35.16-42.65-72.12-84.64-105.44-128.66-21.98-29.05-38.71-59.88-38.71-100.75,0-195.21,297.51-195.21,297.51,0,0,40.87-16.73,71.7-38.71,100.75-33.32,44.02-70.28,86.01-105.44,128.66-1.18,1.43-2.76,2.18-4.62,2.18s-3.42-.75-4.6-2.18Z"/>
        <path class="cls-13" d="M245.35,440.14c-35.01-42.57-71.8-84.48-104.98-128.41-21.89-29-38.55-59.77-38.55-100.57,0-194.86,296.27-194.86,296.27,0,0,40.8-16.66,71.58-38.55,100.57-33.17,43.93-69.97,85.84-104.98,128.41-1.18,1.44-2.76,2.19-4.62,2.19s-3.42-.75-4.6-2.19Z"/>
        <path class="cls-12" d="M245.35,439.91c-34.85-42.48-71.49-84.31-104.52-128.16-21.8-28.94-38.39-59.66-38.39-100.39,0-194.52,295.03-194.52,295.03,0,0,40.73-16.59,71.45-38.39,100.39-33.03,43.85-69.66,85.67-104.52,128.16-1.18,1.44-2.76,2.19-4.62,2.19s-3.42-.75-4.6-2.19Z"/>
        <path class="cls-8" d="M245.34,439.67c-34.7-42.4-71.17-84.15-104.05-127.91-21.7-28.89-38.23-59.56-38.23-100.22,0-194.17,293.78-194.17,293.78,0,0,40.66-16.52,71.32-38.22,100.22-32.88,43.76-69.36,85.51-104.05,127.91-1.18,1.44-2.76,2.2-4.62,2.2s-3.42-.76-4.6-2.2Z"/>
        <path class="cls-11" d="M245.34,439.44c-34.55-42.32-70.86-83.98-103.59-127.65-21.61-28.84-38.07-59.45-38.07-100.04,0-193.83,292.54-193.83,292.54,0,0,40.59-16.45,71.2-38.06,100.04-32.74,43.67-69.05,85.34-103.59,127.65-1.18,1.45-2.76,2.21-4.62,2.21s-3.42-.76-4.6-2.21Z"/>
        <path class="cls-10" d="M245.34,439.2c-34.39-42.23-70.54-83.81-103.13-127.4-21.52-28.79-37.91-59.35-37.91-99.86,0-193.48,291.3-193.48,291.3,0,0,40.51-16.38,71.07-37.9,99.86-32.59,43.59-68.74,85.17-103.13,127.4-1.18,1.45-2.76,2.21-4.62,2.21s-3.42-.76-4.6-2.21Z"/>
        <path class="cls-14" d="M245.34,438.97c-34.24-42.15-70.23-83.65-102.67-127.15-21.43-28.74-37.75-59.24-37.75-99.68,0-193.14,290.05-193.14,290.05,0,0,40.44-16.31,70.95-37.74,99.68-32.45,43.5-68.43,85-102.67,127.15-1.18,1.46-2.77,2.22-4.62,2.22s-3.43-.76-4.6-2.22Z"/>
        <path class="cls-6" d="M245.34,438.73c-34.09-42.07-69.91-83.48-102.21-126.9-21.33-28.68-37.58-59.13-37.58-99.5,0-192.79,288.81-192.79,288.81,0,0,40.37-16.24,70.82-37.57,99.5-32.3,43.42-68.12,84.83-102.21,126.9-1.18,1.46-2.77,2.23-4.62,2.23s-3.43-.77-4.61-2.23Z"/>
        <path class="cls-3" d="M245.34,438.5c-33.94-41.98-69.6-83.32-101.75-126.65-21.24-28.63-37.42-59.03-37.42-99.33,0-192.45,287.57-192.45,287.57,0,0,40.3-16.17,70.7-37.41,99.33-32.16,43.33-67.82,84.67-101.75,126.65-1.18,1.47-2.77,2.23-4.62,2.23s-3.43-.77-4.61-2.23Z"/>
        <path class="cls-9" d="M245.34,438.26c-33.78-41.9-69.28-83.15-101.29-126.4-21.15-28.58-37.26-58.92-37.26-99.15,0-192.1,286.32-192.1,286.32,0,0,40.23-16.1,70.57-37.25,99.15-32.01,43.25-67.51,84.5-101.29,126.4-1.18,1.47-2.77,2.24-4.62,2.24s-3.43-.77-4.61-2.24Z"/>
        <path class="cls-7" d="M245.34,438.03c-33.63-41.82-68.96-82.99-100.83-126.15-21.06-28.53-37.1-58.81-37.1-98.97,0-191.76,285.08-191.76,285.08,0,0,40.16-16.03,70.44-37.09,98.97-31.87,43.16-67.2,84.33-100.83,126.15-1.18,1.47-2.77,2.25-4.63,2.25s-3.43-.77-4.61-2.25Z"/>
        <path class="cls-5" d="M245.34,437.79c-33.48-41.73-68.65-82.82-100.37-125.89-20.96-28.48-36.94-58.71-36.94-98.79,0-191.41,283.84-191.41,283.84,0,0,40.09-15.96,70.32-36.92,98.79-31.72,43.08-66.89,84.16-100.37,125.89-1.18,1.48-2.77,2.25-4.63,2.25s-3.43-.77-4.61-2.25Z"/>
        <path class="cls-4" d="M245.33,437.56c-33.32-41.65-68.33-82.65-99.91-125.64-20.87-28.42-36.78-58.6-36.78-98.62,0-191.07,282.59-191.07,282.59,0,0,40.01-15.89,70.19-36.76,98.62-31.58,42.99-66.59,83.99-99.91,125.64-1.18,1.48-2.77,2.26-4.63,2.26s-3.43-.78-4.61-2.26Z"/>
        <path class="cls-2" d="M245.33,437.32c-33.17-41.56-68.02-82.49-99.45-125.39-20.78-28.37-36.61-58.5-36.61-98.44,0-190.73,281.35-190.73,281.35,0,0,39.94-15.82,70.07-36.6,98.44-31.43,42.9-66.28,83.83-99.45,125.39-1.18,1.49-2.77,2.27-4.63,2.27s-3.43-.78-4.61-2.27Z"/>
        <path class="cls-18" d="M245.33,437.09c-33.02-41.48-67.7-82.32-98.99-125.14-20.69-28.32-36.45-58.39-36.45-98.26,0-190.38,280.11-190.38,280.11,0,0,39.87-15.75,69.94-36.43,98.26-31.29,42.82-65.97,83.66-98.99,125.14-1.18,1.49-2.77,2.27-4.63,2.27s-3.43-.78-4.61-2.27Z"/>
      </g>
      <g>
        <path class="cls-17" d="M245.33,437.12c-32.64-40.37-66.89-80.14-97.88-121.78,23.06,25.23,47.22,49.96,71.29,74.57,21.99,22.51,39.33,23.06,63.18-.78,24.09-24.07,47.71-48.82,70.53-73.79-30.99,41.64-65.26,81.4-97.88,121.78-1.18,1.46-2.77,2.24-4.63,2.24s-3.43-.78-4.61-2.24Z"/>
        <path class="cls-19" d="M112.49,179.47c31.89-145.71,246.03-144.77,275.55,2.86-.66,2.13-1.56,4.25-2.67,6.28-5.08,9.23-13.51,14.45-23.29,14.45-74.31-23.26-148.6-20.53-222.9,0-9.8,0-18.21-5.22-23.29-14.45-1.61-2.93-2.76-6-3.4-9.14Z"/>
      </g>
      <path class="cls-1" d="M249.95,98.48c62.48,0,113.16,50.67,113.16,113.14s-50.67,113.16-113.16,113.16-113.14-50.67-113.14-113.16,50.67-113.14,113.14-113.14Z"/>
      <g id="Camada_1-2" data-name="Camada_1">
        <g>
          <path class="cls-21" d="M276.43,193.81c4.34,6.83,16.26,6.7,22.21,4.09,5.96-2.61,12.16,2.61,12.16,2.61,0,0-3.43-8.98-12.84-6.52-9.41,2.46-19.92-10.05-2.61-6.7s36.48,21.22,36.48,21.22c-28.29-37.57-52.88-37.67-67.19-32.62-10.17,3.59-15.39,15.26-10.82,25.02,7.75,16.55,30.84,14.13,40.18,12.38-5.1.22-7.99-3.15-.7-4.85,9.06-2.11,17.25,3.97,17.25,3.97,0,0-3.23-10.42-24.82-8.56-21.59,1.86-25.44-10.3-23.58-13.69,1.86-3.39,9.93-3.19,14.27,3.63h0Z"/>
          <path class="cls-21" d="M233.44,203.31s0,0,.01.01l35.28-43.39s6.08-.62,12.16,5.71c6.08,6.33,12.04,9.31,12.41,6.33s-2.61-2.11-5.59-3.47-9.31-8.69-13.4-10.3l2.36-2.73,31.15,14.39,3.35-6.83s-36.85-17.5-43.56-17l-14.57,20.05-1.31-1.5c-3.38-3.88-8.33-6.02-13.47-5.8l-5.33.22s-1.36,14.15,0,24.57l6.31,1.5-10.75,14.79s0,0,0,0c-5.9-3.48-12.78-5.48-20.12-5.48-21.91,0-39.67,17.76-39.67,39.67s17.76,39.67,39.67,39.67,39.67-17.76,39.67-39.67c0-12.4-5.69-23.48-14.61-30.75h0ZM231.07,201.52s-.04-.03-.07-.05c.02.02.04.03.07.05ZM231.73,201.99s-.07-.05-.1-.08c.04.03.07.05.1.08ZM208.38,262.11c-15.49,0-28.05-12.56-28.05-28.05s12.55-28.05,28.05-28.05c4.78,0,9.27,1.19,13.21,3.3l-4.64,6.41c-.59-.2-1.11-.33-1.51-.41-1.11-.25-3.04-.54-5.36-.08-3.34.66-6.23,2.59-8.13,5.42l-3.54,5.29c-2.69.21-4.87.81-6.62,1.83-2.05,1.19-3.47,2.96-4.23,5.25-.15.47.02.98.43,1.26l9.58,6.41c-.93,2.31-.16,5.04,1.99,6.48,2.15,1.44,4.97,1.12,6.75-.63l9.58,6.41c.41.27.95.24,1.33-.08,1.83-1.57,2.92-3.56,3.24-5.91.28-2.01,0-4.25-.83-6.82l3.54-5.29c1.55-2.32,2.29-5.01,2.14-7.78-.13-2.41-.96-4.77-2.35-6.72-.33-.49-.81-1.14-1.47-1.8l4.79-6.09c6.21,5.15,10.17,12.91,10.17,21.61,0,15.49-12.56,28.05-28.05,28.05h0Z"/>
        </g>
      </g>
    </g>
  </g>
</svg>
